<?xml version="1.0" encoding="UTF-8" standalone="no"?>
<svg id="svg2" xmlns:rdf="http://www.w3.org/1999/02/22-rdf-syntax-ns#" xmlns="http://www.w3.org/2000/svg" height="864pt" width="830pt" version="1.1" xmlns:cc="http://creativecommons.org/ns#" xmlns:dc="http://purl.org/dc/elements/1.1/" viewBox="0 0 830 864">
<g>
<path id="path4" d="m245.6 0h33.78c39.95 4 78.93 17.21 112.82 38.8 46.31 29.59 88.76 65.83 123.36 108.64 25.89 34.24 48.6 72.51 84.43 97.57 45.47 30.57 97.25 49.8 147.07 71.93 43.64 16.42 80.83 55.09 82.94 103.53v12.14c-4.3 49.62-31.51 93.55-61.56 131.84-43.65 55.63-98.35 101.47-155.86 142.14-92.74 63.75-193.18 122.65-305.45 142.54-43.59 7.52-95.82 7.75-128.93-26.33-17.31-18.2-24.81-43.47-25.9-68.11-3.49-60.55-0.86-122.55-17.48-181.5-14.58-48.69-50.04-86.48-75.89-129.12-30.15-54.17-52.49-113.73-58.93-175.67v-21.78c2.6-58.12 29.43-114.7 74.56-151.8 2.47-7.74 19.42-9.42 10.64-19.86-12.62-21.04 11.88-45.18 33.11-42.49 12.36 0.89 18.91 21.19 30.55 7.47-12.25-20.48-41.31-28.22-60.71-12.68-17.03 8.5-24.33 29.42-21.97 45.66-13.72-41.14 44.7-79.35 77.54-51.64 4.27 2.09 7.48 10 12.64 6.13 27.48-15.13 58.04-24.34 89.24-27.41m2 19.56c-36.71 1.73-72.56 13.49-104.27 31.82 0.37 5.79 10.05 3.33 13.7 0.63 52.88-28.26 117.77-32.93 173.25-9.3 47.93 19.27 87.13 54.8 124 90.01 37.68 36.22 59.92 85.16 98.45 120.55 32.72 32.61 76.49 49.83 118.11 67.93 3.23 1.56 8.77 2.5 10.99 0.03-53.71-23.25-111.77-45.5-148.81-93.26-34.19-45.39-63.55-95.42-107.39-132.6-48.81-43.07-110.74-79.72-178.03-75.81m-137.13 21.9c-18.13 2.43-30.83 21.74-20.37 38.41 13.24-8.77 24.89-20.05 38.81-27.95-4.1-5.88-10.81-11.83-18.44-10.46m132.03 6.94c-52.59 4.23-100.59 31.34-139.78 65.32-39.03 33.36-66.02 82.32-66.76 134.34 0.96 58.23 20.55 115.03 50.27 164.71 22.68 39.38 54.64 73.16 72.88 115.11 24.15 55.04 22.66 116.88 23.84 175.73-0.1 3.48-4.85 13.92 1.51 14 44.4-69.24 102.09-129.47 165.83-181.28 6.65-3 6.46-11.12 12.12-14.94 82.73-70.78 178.03-128.86 282.69-160.42-2.34-3.85-7.96-0.68-11.11-0.05-95.45 30.23-181.92 83.49-260.81 144.26-69.31 53.58-134.27 113.97-188.03 182.97 37.03-64.04 86.7-120.11 140.82-170.18 82.56-74.5 176.21-139.21 281.83-176.05-22.36-13.98-46.77-26.92-66.66-45.06-47-39.53-68.9-98.98-107.72-145.28-47.29-55.68-113.79-108.03-190.92-103.18m-111.06 10.04c-12.87 8.37-25.72 16.94-37.32 27.03 0.26 2.15-0.67 9.19 2.73 6.39 12.97-10.5 26.43-20.39 40.78-28.95-0.68-1.85-3.87-5.1-6.19-4.47m-40.02 29.74c-54.08 42.93-88.12 113.45-78.75 183.15 7.14 75.16 42.71 144.16 87.16 203.87-20.3-22.32-35.56-49.9-51.85-75.14 26.33 63.07 83.69 108.63 102.44 175.53 12.93 44.6 14.35 91.34 19.25 137.22 1.4 1.36 5.02 8.21 6.38 4-2.09-47.05-4.51-94.59-15.33-140.61 2.88 26.53 10.75 59.64 8.38 86.7-3.84-42.54-7.25-86.43-25.2-125.8-18.77-41.08-50.96-74.02-72.76-113.25 10.78 12.49 18.22 29.29 29.71 41.27-16.79-25.14-33.88-50.61-45.04-78.9 21.65 47.65 57.77 87.24 85.27 131.7 16.79 28.06 26.24 60.94 31.99 92.03-4.1-41.58-18.94-81.83-43.04-115.98-28.52-39.76-59.73-78.35-79.47-123.52-22.2-49.29-37.5-104.39-27.74-158.64 8.08-45.81 35.24-86.38 70.03-116.49 0.08-2.27 1.85-6.91-1.43-7.14m415.47 132.91c30.6 51.84 82.73 87.98 138.02 109.38 2.22-0.63 5.58-0.38 6.89-2.32-25.21-11.42-50.47-23.18-73.86-38.09-28.44-17.59-50.34-43.29-71.05-68.97m181.07 103.19c2.48 9.23 17.25 8.97 25.01 13.76-5.64-8.08-16.07-10.92-25.01-13.76m31.24 8.56c4.58 18.02 27 14.35 40.75 19.34-11.71-9.34-27.26-13.06-40.75-19.34m-33.03 11.45c-4.46 8 10.85-1.06 0 0m7.93 3.24c-0.68 5.91 6.07-0.91 0 0m16.38 9.58c2.6 4.48 8.8-1.82 0 0m13.74 0.05c-3.12 12.64 19.44 7.37 26.94 11.83-7.67-5.63-17.73-9.29-26.94-11.83m-20.78 7.15c-9.81 3.19 8.36 0.51 0 0m71.19 6.02c26.95 22.76 30.63 61.97 19.33 93.63-17.97 51.25-53.1 95.24-90.82 133.19 31.54-37.16 61.82-76.92 79.05-122.97-31.67 57.46-75.87 108.37-123.05 153.94 26.61-22.01 50.25-47.89 73.92-73.06-35.45 49.05-80.52 90.46-126.03 130 42.34-30.91 83.89-64 117.14-104.89 31.06-37.22 61.9-77.01 75.85-124.17 8.94-29.82 3.06-68.47-25.39-85.67m-71.04 16.22c-116.35 15.56-221.07 76.91-312.73 147.34-3.5 1.57-0.34 4.28 1.28 5.96 30.37 32.88 43.09 83.68 24.14 125.43-14.87 30.13-49.11 50.68-82.97 46.61-33.38-2.32-63.07-23.39-81.45-50.64-0.72-3.26-5.61 4.39-3.94 0.73 4.41-2.98-3.98-10.96 5.32-7.9 1.36 1.6-1.72 3.79-0.58 5.5 18.67 25.36 47.7 43.76 79.41 46.47 34.88 2.38 70.7-21.07 79.54-55.43 11.5-41.58-7.24-88.07-41.47-113.31-2.88 2.02-5.75 4.14-8.18 6.7 1.07 5.45 6.61-1.55 4.55 4.52 23.55 19.45 38.81 53.18 34.58 82.26 1.41-32.78-15.94-65.83-42.96-83.74-35.53 28.87-69.38 59.97-100.99 93.07 4.18 5.25 8.36 10.7 10.73 17.05-4.93-3.97-6.96-11.08-12.88-14.25-32.92 29.58-59.1 67.31-71.61 110.01 0.89 9.5 2.94 18.86 5.79 27.97 4.11-41.62 30.77-78.85 56.93-110.83-15.45 27.23-31.79 55.06-39.06 85.89-4.01 14.17-4.95 33.81 10.97 41 25.95 12.25 55.87 3.49 82.37-2.58 68.66-19.36 132.28-52.72 193.83-88.17 102.26-62.76 209.7-132.35 268.19-240.81 10.24-20.55 16.84-47.98 0.45-67.22-15.97-14.31-39.39-12.83-59.26-11.63m-114.31 0.49c-5.7 2.85 4.74 1.68 0 0m-4.73 2.38c-73.66 29.81-142 72.59-203.48 122.62 63.26-46.74 130.02-90.37 202.89-120.98 1.19-0.48 3.13-3.12 0.59-1.64m-483.06 76.8c-0.55 5.22 4.96 0.4 0 0m71.84 145.27c-2.58 6.48 3.24 4.69 0 0m0.96 8.02c-2.58 5.46 3.41 3.38 0 0m1 8c-2.58 5.46 3.41 3.38 0 0m482.25 0.97c-10.43 7.44-0.41 4.72 0 0m-481.25 8.03c-2.58 5.46 3.41 3.38 0 0m1.04 8.98c-2.58 6.48 3.24 4.69 0 0m72.84 9.68c-1.02 4.62 4.63-1.02 0 0m-71.84 2.32c-2.58 6.48 3.24 4.69 0 0m1.02 12.01c-2.59 7.47 3.15 5.89 0 0m0.65 12.5c-1.72 14.27 3.47 8.92 0 0m1 18.02c-1.64 10.59 3.46 6.3 0 0m-12.29 16.27c0.81 11.78 0.92 24.67 2.03 35.79 4.42-10.71 12.79-29.9-2.03-35.79m14.46 3.96c-4.11 2.76 3.33 2.69 0 0m332.31 13.17c-65.51 39.79-135.84 74.07-211.7 88.38-28.55 4.89-59.28 7.37-86.6-3.99-19.87-7.84-31.96-27.15-37.23-46.95-2.42 15.19 3.08 31.16 15.29 40.89 26.37 23.12 64.21 22.79 97.05 18.59 80.39-14.5 154.12-52.36 222.7-95.37 1.07-1.2 1.23-1.72 0.49-1.55z"/>
<path id="path6" d="m213.48 58.38c1.09-0.55 3.77-0.62 1.56 0.71-35.48 10.38-66.65 31.7-94.76 55.19-33.11 28.12-60.74 65.24-69.48 108.51-1.85 4.26-0.95 12.6-3.97 14.85-0.43-52.53 33.27-98.51 73.04-129.77 27.78-21.97 59.28-40.11 93.61-49.49z"/>
<path id="path8" d="m299.22 63.85c52.14 15.57 97.19 51.1 130.49 93.46-36.44-39.18-81.37-73.47-130.49-93.46z"/>
<path id="path10" d="m64.9 120.05c-1.45 6.54-8.58 5.24 0 0z"/>
<path id="path12" d="m59.45 126.46c-31.75 39.6-48.34 97.43-40.97 150.07 7.23 49.16 25.02 96.55 47.8 140.46 5.03 9.49 13.01 24.44 20.71 35.97-28.91-38.71-47.01-84.64-61.39-130.56-21.14-65.45-12.68-143.32 33.85-195.94z"/>
<path id="path14" d="m679.58 395.29c0.63 0.1 1.88 0.29 2.51 0.39-75.65 20.23-144.48 58.85-213.12 95.34 62.02-46.58 135.17-78.18 210.61-95.73z"/>
<path id="path16" d="m751.88 401.1c12.57 5.55 14.88 21.38 13.87 33.49-4.17 24.17-16.77 46.68-31.6 65.57 12.14-22.24 26.13-44.85 28.2-70.78 1.73-10.6-2.83-21.18-10.47-28.28z"/>
<path id="path18" d="m89.51 457.2c5.09-0.18 0 5.12 0 0z"/>
<path id="path20" d="m371.34 541.41c1.49 4.86-6.68 2.96 0 0z"/>
<path id="path22" d="m398.17 583.56c4.61 1.45-1.41 5.27 0 0z"/>
<path id="path24" d="m399.83 588.17c14.44 28.99 11.03 71.09-15.58 93.07-30.12 27.77-81.1 19.17-107.39-9.07 26.09 22.65 67.88 33.78 98.12 12.81 32.45-19.41 37.79-64.07 24.85-96.81z"/>
<path id="path26" d="m170.03 664.02c3.64 12.32-1.83 15.66 0 0z"/>
<path id="path28" d="m677.56 664.55c0.28 2.56-7.95 8.05-11.25 10.78-52.67 46.29-111.97 84.74-174.23 116.7 64.24-38.26 127.34-79.97 185.48-127.48z"/>
<path id="path30" d="m270.69 667.18c8.45 4.66 2.79 6.48 0 0z"/>
<path id="path32" d="m142.99 782.03c-6.87-34.47-4.69-70.75-4.26-105.31 7.86 40.17-0.25 83.22 15.7 121.87 14.68 37.61 54.79 59.11 93.76 60.35 45.46 2.4 90.2-8.67 132.98-22.97-33.8 15.03-70.92 23.72-107.78 28.03h-31.71c-46.11-2.87-90.21-34.99-98.69-81.97z"/>
</g>
</svg>
